<?xml version="1.0" encoding="UTF-8"?>
<!DOCTYPE svg PUBLIC "-//W3C//DTD SVG 1.1//EN" "http://www.w3.org/Graphics/SVG/1.1/DTD/svg11.dtd">
<svg xmlns="http://www.w3.org/2000/svg" version="1.1" width="1200px" height="375px" style="shape-rendering:geometricPrecision; text-rendering:geometricPrecision; image-rendering:optimizeQuality; fill-rule:evenodd; clip-rule:evenodd" xmlns:xlink="http://www.w3.org/1999/xlink">
<g><path style="opacity:0.971" fill="#ff595e" d="M 163.5,-0.5 C 170.167,-0.5 176.833,-0.5 183.5,-0.5C 205.925,4.73563 222.425,17.7356 233,38.5C 268.934,107.701 303.267,177.701 336,248.5C 353.874,283.847 350.874,317.18 327,348.5C 313.534,362.315 297.367,370.981 278.5,374.5C 271.167,374.5 263.833,374.5 256.5,374.5C 233.11,369.972 212.443,359.805 194.5,344C 187.279,336.779 180.113,329.613 173,322.5C 155.866,342.982 135.033,358.482 110.5,369C 103.486,371.295 96.486,373.128 89.5,374.5C 82.5,374.5 75.5,374.5 68.5,374.5C 31.3986,366.732 8.39859,344.399 -0.5,307.5C -0.5,298.833 -0.5,290.167 -0.5,281.5C 1.69726,272.744 4.53059,264.077 8,255.5C 41.7779,181.61 77.4445,108.61 115,36.5C 125.574,16.7503 141.741,4.41697 163.5,-0.5 Z M 173.5,24.5 C 186.945,25.0981 197.778,30.7648 206,41.5C 246.323,116.813 283.99,193.48 319,271.5C 329.679,307.165 318.179,332.665 284.5,348C 264.944,352.757 246.61,349.757 229.5,339C 214.325,329.484 201.492,317.65 191,303.5C 210.234,280.711 224.568,255.044 234,226.5C 240.876,203.819 238.21,182.486 226,162.5C 209.544,142.563 188.378,134.397 162.5,138C 128.247,145.346 110.58,166.513 109.5,201.5C 110.005,217.186 113.505,232.186 120,246.5C 129.916,267.351 142.083,286.684 156.5,304.5C 142.948,321.889 126.282,335.389 106.5,345C 84.1006,354.248 63.1006,351.915 43.5,338C 24.5872,319.848 19.4205,298.348 28,273.5C 63.4222,194.323 101.756,116.656 143,40.5C 151.119,31.0261 161.285,25.6927 173.5,24.5 Z M 164.5,161.5 C 201.061,160.566 216.561,178.233 211,214.5C 203.169,240.17 190.669,263.17 173.5,283.5C 154.627,262.091 141.794,237.424 135,209.5C 131.927,185.274 141.761,169.274 164.5,161.5 Z"/></g>
<g><path style="opacity:0.972" fill="#ff595e" d="M 600.5,69.5 C 619.19,67.37 629.856,75.5367 632.5,94C 630.894,109.106 622.561,117.273 607.5,118.5C 592.209,117.209 583.876,108.876 582.5,93.5C 583.654,81.7011 589.654,73.7011 600.5,69.5 Z"/></g>
<g><path style="opacity:0.985" fill="#ff5a5e" d="M 746.5,69.5 C 758.833,69.5 771.167,69.5 783.5,69.5C 783.333,95.5021 783.5,121.502 784,147.5C 794.1,137.63 806.267,132.964 820.5,133.5C 861.161,135.993 884.994,157.326 892,197.5C 895.484,233.711 881.317,260.211 849.5,277C 832.705,283.445 815.705,284.112 798.5,279C 793.239,276.455 788.406,273.288 784,269.5C 783.667,271.5 783.333,273.5 783,275.5C 782.5,277.333 781.333,278.5 779.5,279C 768.505,279.5 757.505,279.667 746.5,279.5C 746.5,209.5 746.5,139.5 746.5,69.5 Z M 810.5,167.5 C 834.058,167.005 848.892,178.005 855,200.5C 857.596,225.497 846.762,240.997 822.5,247C 806.636,249.828 793.803,244.995 784,232.5C 783.333,215.833 783.333,199.167 784,182.5C 791.218,174.479 800.051,169.479 810.5,167.5 Z"/></g>
<g><path style="opacity:0.977" fill="#ff595e" d="M 1199.5,195.5 C 1199.5,204.167 1199.5,212.833 1199.5,221.5C 1188.67,264.473 1161,284.639 1116.5,282C 1106.36,280.513 1097.86,276.013 1091,268.5C 1090.67,271.167 1090.33,273.833 1090,276.5C 1089.1,277.701 1087.93,278.535 1086.5,279C 1075.84,279.5 1065.17,279.667 1054.5,279.5C 1054.5,209.5 1054.5,139.5 1054.5,69.5C 1066.83,69.5 1079.17,69.5 1091.5,69.5C 1091.33,95.1688 1091.5,120.835 1092,146.5C 1104.86,135.664 1119.69,131.497 1136.5,134C 1171.56,140.23 1192.56,160.73 1199.5,195.5 Z M 1118.5,167.5 C 1150.67,168.834 1165.17,185.501 1162,217.5C 1154.19,240.672 1138.02,250.505 1113.5,247C 1104.8,244.967 1097.63,240.467 1092,233.5C 1091.33,216.5 1091.33,199.5 1092,182.5C 1099.24,174.471 1108.07,169.471 1118.5,167.5 Z"/></g>
<g><path style="opacity:0.98" fill="#ff5a5e" d="M 485.5,133.5 C 502.336,131.413 517.17,135.746 530,146.5C 530.396,143.304 531.562,140.47 533.5,138C 544.828,137.5 556.162,137.333 567.5,137.5C 567.5,184.833 567.5,232.167 567.5,279.5C 556.828,279.667 546.161,279.5 535.5,279C 534.234,278.691 533.067,278.191 532,277.5C 531.08,274.899 530.413,272.232 530,269.5C 523.297,276.435 515.13,280.602 505.5,282C 465.768,285.558 438.934,268.725 425,231.5C 418.15,205.421 422.484,181.421 438,159.5C 450.673,144.916 466.506,136.25 485.5,133.5 Z M 492.5,168.5 C 507.603,166.585 520.103,171.252 530,182.5C 530.667,199.833 530.667,217.167 530,234.5C 513.582,250.406 495.415,252.573 475.5,241C 462.268,230.317 457.102,216.484 460,199.5C 464.564,182.432 475.398,172.099 492.5,168.5 Z"/></g>
<g><path style="opacity:0.969" fill="#ff595e" d="M 710.5,133.5 C 717.947,133.152 725.28,133.818 732.5,135.5C 733.499,146.814 733.832,158.147 733.5,169.5C 720.522,166.136 707.855,166.969 695.5,172C 691.421,174.075 687.921,176.908 685,180.5C 684.5,213.498 684.333,246.498 684.5,279.5C 672.167,279.5 659.833,279.5 647.5,279.5C 647.5,232.167 647.5,184.833 647.5,137.5C 658.838,137.333 670.172,137.5 681.5,138C 683.774,140.344 684.941,143.178 685,146.5C 692.412,139.878 700.912,135.544 710.5,133.5 Z"/></g>
<g><path style="opacity:0.971" fill="#ff595e" d="M 970.5,133.5 C 991.806,131.212 1009.97,137.545 1025,152.5C 1031.83,161.667 1035.5,172 1036,183.5C 1036.5,215.498 1036.67,247.498 1036.5,279.5C 1024.17,279.5 1011.83,279.5 999.5,279.5C 999.963,247.792 999.463,216.125 998,184.5C 994.487,171.9 986.153,166.234 973,167.5C 961.374,167.48 951.707,171.814 944,180.5C 943.5,213.498 943.333,246.498 943.5,279.5C 931.167,279.5 918.833,279.5 906.5,279.5C 906.5,232.167 906.5,184.833 906.5,137.5C 917.172,137.333 927.839,137.5 938.5,138C 940.968,140.228 942.135,143.062 942,146.5C 950.404,139.544 959.904,135.211 970.5,133.5 Z"/></g>
<g><path style="opacity:0.991" fill="#ff5a5e" d="M 589.5,137.5 C 601.833,137.5 614.167,137.5 626.5,137.5C 626.5,184.833 626.5,232.167 626.5,279.5C 614.167,279.5 601.833,279.5 589.5,279.5C 589.5,232.167 589.5,184.833 589.5,137.5 Z"/></g>
</svg>
